<?xml version="1.0" encoding="UTF-8" standalone="no"?>
<svg
   version="1.0"
   width="582.532690pt"
   height="588.587564pt"
   viewBox="0 0 582.532690 588.587564"
   preserveAspectRatio="xMidYMid meet"
   id="svg6"
   sodipodi:docname="arcgopher.svg"
   inkscape:version="1.4.1 (93de688d, 2025-03-30)"
   xmlns:inkscape="http://www.inkscape.org/namespaces/inkscape"
   xmlns:sodipodi="http://sodipodi.sourceforge.net/DTD/sodipodi-0.dtd"
   xmlns="http://www.w3.org/2000/svg"
   xmlns:svg="http://www.w3.org/2000/svg">
  <defs
     id="defs6" />
  <sodipodi:namedview
     id="namedview6"
     pagecolor="#ffffff"
     bordercolor="#000000"
     borderopacity="0.25"
     inkscape:showpageshadow="2"
     inkscape:pageopacity="0.0"
     inkscape:pagecheckerboard="true"
     inkscape:deskcolor="#d1d1d1"
     inkscape:document-units="pt"
     inkscape:zoom="1.0711845"
     inkscape:cx="793.5141"
     inkscape:cy="503.18129"
     inkscape:window-width="2560"
     inkscape:window-height="1315"
     inkscape:window-x="0"
     inkscape:window-y="31"
     inkscape:window-maximized="1"
     inkscape:current-layer="svg6"
     showgrid="false" />
  <metadata
     id="metadata1">
Created by potrace 1.12, written by Peter Selinger 2001-2015
</metadata>
  <g
     transform="matrix(0.1,0,0,-0.1,0.46432261,588.68724)"
     fill="#000000"
     stroke="none"
     id="g6"
     style="fill:#006680">
    <path
       d="M 2663.0992,5849.2405 C 1950.6772,5781.645 1323.9451,5483.4294 830.72998,4975.4688 153.18181,4276.6502 -126.80499,3307.4495 73.470268,2342.2251 176.09889,1842.2169 421.21189,1369.0481 775.92828,983.356 882.54248,868.046 1007.0918,752.73596 1156.5509,631.46162 1160.5365,628.47946 1138.6157,569.8304 1107.7276,501.24081 952.29002,156.30476 894.49922,24.095844 894.49922,15.149376 c 0,-6.9583638 106.61408,-8.9464678 299.91458,-7.9524158 l 299.9148,2.9821558 33.8774,84.494424 c 17.935,46.72044 33.8773,85.48847 33.8773,87.47658 0,0.99405 83.6971,0.99405 186.3259,0 l 185.3293,-2.98216 33.8774,-79.52416 c 18.9315,-43.738292 38.8593,-82.50632 45.8342,-86.482528 6.9747,-4.9702598 217.2139,-7.9524158 467.3089,-6.9583638 l 455.3523,0.994052 2.9891,36.7799238 2.9891,35.785876 89.6755,2.982156 89.6755,1.988104 27.899,-39.762084 27.8992,-39.7620798 h 323.8281 c 178.3546,0 322.8317,3.976208 322.8317,8.9464678 0,4.97026 -6.9747,13.916728 -14.9459,20.875092 -8.9676,6.958364 -24.9099,25.845356 -35.8701,41.750188 l -20.9244,28.827506 64.7657,-35.78587 C 3925.5308,10.179116 3968.3757,5.2088562 4424.7244,5.2088562 h 405.5325 V 263.66238 521.12185 l -156.4338,2.98215 -157.4304,2.98216 69.7477,48.70855 c 228.1742,161.03642 455.352,383.70404 639.6852,628.24079 413.5035,545.7346 627.7284,1253.4996 582.8906,1925.4787 -40.8522,612.3361 -257.0696,1172.9814 -635.6995,1647.1442 -93.6612,117.2981 -348.7381,368.7933 -462.327,456.2699 -433.4315,334.0014 -874.8344,521.8773 -1404.9161,598.4193 -158.4267,22.8632 -494.2117,31.8096 -642.6744,17.8929 z M 3418.366,124.4951 h -765.2309 c 0,0 980.8303,0.63253 765.2309,0 z"
       id="path1-3"
       style="display:inline;fill:#ffffff;stroke-width:0.995223"
       inkscape:label="path1"
       sodipodi:nodetypes="ccccccscccsccccccccccccssccccsccccccccccccccc" />
    <path
       d="M 2665,5879 C 1950,5811 1321,5511 826,5000 146,4297 -135,3322 66,2351 169,1848 415,1372 771,984 878,868 1003,752 1153,630 c 4,-3 -18,-62 -49,-131 C 948,152 890,19 890,10 890,3 997,1 1191,2 l 301,3 34,85 c 18,47 34,86 34,88 0,1 84,1 187,0 l 186,-3 34,-80 c 19,-44 39,-83 46,-87 7,-5 218,-8 469,-7 l 457,1 3,37 3,36 90,3 90,2 28,-40 28,-40 h 325 c 179,0 324,4 324,9 0,5 -7,14 -15,21 -9,7 -25,26 -36,42 l -21,29 65,-36 C 3932,5 3975,0 4433,0 h 407 v 260 259 l -157,3 -158,3 70,49 c 229,162 457,386 642,632 415,549 630,1261 585,1937 -41,616 -258,1180 -638,1657 -94,118 -350,371 -464,459 -435,336 -878,525 -1410,602 -159,23 -496,32 -645,18 z m -16,-233 c 17,-21 -13,-46 -55,-46 -27,0 -34,4 -34,20 0,35 66,54 89,26 z m 741,-16 c 0,-19 -83,-50 -132,-50 -35,0 -60,-8 -99,-32 l -52,-33 29,-7 c 16,-3 74,-13 129,-20 84,-11 108,-11 152,1 47,12 59,12 131,-8 43,-11 86,-21 96,-21 23,0 90,-29 83,-36 -3,-3 -41,2 -84,11 -54,12 -88,14 -112,8 -33,-9 -31,-10 67,-42 116,-38 334,-141 419,-199 32,-21 78,-51 101,-66 l 44,-27 -7,23 c -23,84 -38,109 -80,133 -42,25 -73,73 -60,94 3,6 16,11 29,11 43,0 155,-169 172,-260 5,-25 38,-68 121,-160 167,-183 322,-415 375,-559 30,-83 38,-84 38,-5 0,70 10,101 27,91 15,-9 27,-140 24,-251 -2,-55 3,-150 10,-213 12,-108 14,-112 31,-96 29,26 43,85 29,124 -20,58 -12,129 15,129 24,0 37,-42 39,-137 3,-80 1,-95 -14,-103 -18,-9 -81,-118 -81,-140 0,-6 16,-26 35,-44 24,-23 35,-42 35,-61 0,-15 -17,-92 -37,-171 -36,-140 -37,-145 -20,-173 21,-36 22,-72 1,-142 -9,-30 -40,-141 -69,-247 -30,-108 -61,-203 -72,-214 -10,-11 -32,-27 -49,-34 -27,-11 -33,-23 -52,-88 -27,-93 -27,-97 2,-125 13,-13 34,-46 46,-74 26,-59 23,-122 -8,-184 -11,-21 -23,-58 -27,-83 -11,-69 -36,-117 -109,-210 -84,-107 -132,-145 -201,-161 -52,-11 -55,-14 -85,-71 -18,-33 -30,-61 -28,-62 1,-1 21,-8 44,-14 108,-31 181,-125 210,-270 6,-29 4,-32 -19,-32 -23,0 -27,6 -37,55 -27,130 -149,231 -257,210 -18,-3 -33,-2 -33,3 0,4 13,28 28,53 16,24 43,72 62,107 31,59 35,62 69,62 54,0 121,38 158,90 18,25 51,66 73,92 48,56 79,121 80,166 0,18 11,55 25,82 42,83 32,147 -36,216 l -40,41 34,118 c 33,112 36,118 61,120 50,2 63,29 131,279 36,132 65,249 65,261 0,13 -8,33 -18,46 -19,22 -18,25 20,177 21,85 38,164 36,176 -6,43 -217,116 -335,116 -80,0 -82,-3 -124,-192 -18,-82 -38,-148 -44,-148 -35,-1 -48,-35 -111,-287 -35,-142 -64,-264 -64,-271 0,-7 11,-24 25,-37 l 24,-25 -27,-92 -27,-93 -60,-1 c -72,0 -112,-20 -156,-74 l -32,-39 -56,29 c -31,16 -95,55 -144,88 l -87,59 58,36 c 72,44 155,131 173,180 14,39 26,47 35,22 11,-27 22,-16 39,36 22,67 16,176 -13,242 -17,38 -18,47 -6,47 8,0 14,3 14,7 0,20 -61,90 -117,134 -80,62 -82,84 -15,119 64,34 89,84 76,150 -9,44 -8,49 23,89 71,94 102,248 69,349 -50,148 -204,217 -335,149 l -50,-26 -47,55 c -26,30 -77,74 -114,99 -45,30 -70,54 -74,71 -6,23 -53,52 -128,77 -11,4 -18,16 -18,31 0,13 -8,34 -18,46 -15,19 -33,23 -138,32 -80,7 -159,7 -232,1 -124,-11 -149,-23 -154,-76 -3,-27 -9,-32 -54,-48 -78,-26 -94,-37 -94,-64 0,-19 -12,-33 -52,-59 -57,-37 -108,-82 -150,-134 l -27,-33 -52,27 c -97,48 -209,29 -273,-47 -57,-68 -71,-107 -70,-204 0,-102 23,-175 77,-248 30,-39 31,-45 23,-87 -13,-67 10,-115 68,-140 75,-34 75,-71 0,-125 -84,-60 -139,-135 -99,-135 12,0 10,-11 -12,-52 -25,-47 -28,-64 -28,-148 0,-56 6,-107 13,-125 l 13,-30 18,23 17,23 24,-51 c 25,-53 106,-137 178,-185 23,-15 42,-29 42,-31 0,-11 -200,-135 -255,-158 -34,-14 -34,-14 -55,19 -34,55 -84,80 -160,80 h -65 l -26,94 -26,94 24,23 c 13,13 23,31 23,41 0,10 -27,128 -61,263 -57,229 -63,247 -93,275 -30,27 -36,44 -66,175 -18,80 -36,153 -42,163 -26,50 -391,-28 -415,-89 -3,-9 13,-89 36,-179 l 43,-163 -21,-21 c -12,-12 -21,-31 -21,-44 0,-40 129,-500 146,-518 9,-10 30,-19 47,-21 31,-3 31,-5 65,-122 l 34,-118 -30,-32 c -16,-17 -36,-42 -45,-56 -23,-34 -22,-112 3,-160 11,-22 20,-52 20,-68 0,-63 30,-133 83,-190 29,-31 63,-74 75,-94 28,-45 77,-77 142,-92 48,-11 50,-12 109,-111 l 60,-100 -58,-7 c -138,-16 -226,-112 -238,-262 -4,-43 -17,-85 -46,-146 -41,-84 -41,-85 -45,-48 -2,20 4,50 12,66 8,16 20,66 25,112 11,86 43,169 87,227 27,35 117,93 146,93 30,0 30,19 -2,73 -29,48 -37,54 -82,65 -64,15 -104,45 -173,132 -30,38 -59,72 -65,75 -21,13 -61,108 -67,158 -3,29 -16,74 -29,101 -40,84 -27,173 38,251 l 25,30 -25,88 c -20,68 -30,87 -44,87 -10,0 -31,12 -48,28 -26,24 -38,56 -100,282 -73,262 -79,303 -46,339 14,15 12,32 -25,170 -45,170 -44,199 2,233 27,20 29,26 29,92 0,55 -5,78 -24,110 -13,23 -32,71 -41,106 -9,36 -21,73 -26,83 -8,13 -2,41 20,105 17,49 31,94 31,102 0,8 19,44 41,79 28,43 44,60 51,53 7,-7 2,-29 -16,-67 -32,-70 -35,-157 -8,-193 18,-23 18,-22 61,95 57,155 135,305 222,426 69,96 129,204 170,308 26,67 34,77 78,95 34,14 241,214 241,233 0,25 99,39 107,15 7,-21 -38,-63 -73,-70 -26,-5 -47,-21 -82,-62 -26,-30 -59,-68 -74,-84 -28,-29 -63,-88 -53,-88 4,0 34,20 68,43 223,157 470,268 732,330 116,28 317,57 390,57 31,0 64,11 120,41 71,37 80,40 120,31 39,-8 48,-6 78,14 28,19 47,23 111,22 43,0 80,3 83,6 10,10 43,7 43,-4 z m -995,-60 c 0,-27 -64,-60 -116,-60 -26,0 -50,4 -53,9 -7,11 32,47 64,60 37,15 105,9 105,-9 z m 1343,-46 c 43,-30 -12,-61 -67,-38 -29,12 -39,32 -24,47 12,13 68,7 91,-9 z m 836,-760 c 21,-20 20,-43 -1,-51 -10,-4 -23,2 -34,16 -31,38 0,70 35,35 z m -3476,-73 c 6,-58 -48,-109 -63,-61 -8,24 2,59 23,83 22,24 36,16 40,-22 z m 3791,3 c 25,-31 27,-63 6,-90 -15,-19 -15,-19 -35,5 -12,14 -20,38 -20,60 0,58 16,66 49,25 z M 3124,4580 c 4,-4 5,-92 1,-194 -7,-180 -10,-192 -39,-187 -4,1 -31,-10 -59,-24 -78,-38 -173,-29 -229,22 -10,9 -18,12 -18,7 -1,-5 -7,5 -15,21 l -13,30 -2,-50 c -5,-115 -20,91 -18,235 l 3,145 60,6 c 77,9 317,1 329,-11 z m -454,-120 c 0,-13 -12,-25 -35,-34 l -35,-15 -1,-133 -1,-133 -14,150 c -7,82 -10,153 -8,157 5,8 58,25 82,27 6,1 12,-8 12,-19 z m 580,9 32,-12 -7,-116 c -10,-179 -24,-211 -23,-57 v 129 l -31,13 c -20,9 -31,20 -31,34 0,23 13,25 60,9 z m -721,-260 c 7,-88 11,-162 9,-165 -3,-2 -11,7 -18,21 l -13,24 -19,-25 c -29,-36 -90,-63 -157,-70 l -60,-7 -6,-38 c -7,-43 -35,-63 -35,-25 0,73 79,251 146,330 33,39 122,116 135,116 3,0 11,-72 18,-161 z m 879,119 c 61,-47 117,-117 155,-193 34,-68 70,-189 64,-217 l -4,-23 -8,22 c -4,13 -12,20 -18,16 -6,-3 -7,-1 -3,6 4,6 5,20 1,30 -4,14 -19,19 -65,24 -67,6 -140,42 -166,82 -27,41 -34,95 -27,198 3,53 8,97 11,97 3,0 30,-19 60,-42 z M 2173,4216 c 18,-8 40,-21 50,-29 17,-14 17,-17 -4,-60 l -22,-46 -27,19 c -46,33 -75,40 -101,26 -14,-7 -30,-11 -36,-9 -6,2 -14,-1 -18,-6 -4,-7 0,-8 11,-4 14,5 16,3 10,-13 -28,-67 -28,-124 1,-191 7,-18 13,-49 13,-69 0,-36 -1,-37 -19,-20 -36,32 -64,116 -69,201 -3,70 -1,86 20,125 41,76 120,107 191,76 z m 1649,-11 c 40,-27 78,-97 77,-141 l -1,-29 -9,33 c -5,17 -13,32 -18,32 -5,0 -8,8 -7,17 0,10 -7,18 -19,20 -15,2 -16,1 -5,-5 8,-4 17,-22 18,-41 l 4,-35 -38,42 c -45,51 -75,54 -125,13 l -36,-30 -21,45 c -12,24 -22,47 -22,49 0,2 17,16 37,30 51,34 115,34 165,0 z m -486,-126 c 1,-16 -3,-32 -8,-35 -5,-3 -8,12 -7,35 3,45 13,46 15,0 z m -109,-154 c 269,-35 494,-116 554,-198 21,-29 29,-50 27,-72 -3,-30 -19,-38 -26,-13 -2,9 0,8 7,-2 9,-12 11,-10 11,11 0,25 -16,49 -33,49 -4,0 -5,-6 -1,-12 4,-7 -4,-3 -17,8 -130,116 -613,188 -1038,155 -352,-27 -585,-101 -631,-199 -17,-35 -30,-33 -30,5 0,35 25,79 63,107 87,66 294,131 512,159 151,20 454,21 602,2 z M 1374,3713 c 2,-10 17,-71 32,-136 20,-88 24,-121 16,-129 -7,-7 -13,-10 -16,-7 -2,2 -16,58 -32,124 l -29,120 -59,-2 c -65,-2 -153,-19 -176,-33 -12,-7 -9,-27 18,-135 18,-69 30,-131 26,-137 -6,-9 -82,250 -84,284 -1,15 191,66 257,67 32,1 43,-3 47,-16 z m 3319,-20 c 75,-26 82,-30 79,-53 -6,-57 -66,-270 -74,-262 -4,4 6,65 24,135 17,70 29,130 25,134 -4,3 -23,7 -42,7 -19,1 -37,7 -40,14 -6,17 -60,15 -75,-3 -7,-8 -20,-15 -29,-15 -9,0 -22,-5 -29,-12 -9,-9 -12,-5 -12,22 0,52 -8,32 -39,-94 -30,-122 -35,-136 -51,-120 -7,8 35,220 54,271 9,22 103,11 209,-24 z m -1987,-49 c 34,-35 34,-35 34,-10 0,25 1,25 91,28 50,2 135,2 190,0 l 99,-3 v -27 -26 l 39,38 c 37,36 41,37 87,31 107,-14 105,-8 28,-86 -99,-101 -147,-120 -174,-68 -13,24 -30,25 -30,2 0,-37 38,-82 80,-94 22,-7 40,-18 40,-26 0,-26 40,-91 68,-111 45,-33 75,-36 125,-14 63,28 90,81 93,181 2,40 4,74 6,76 4,4 112,-12 137,-20 19,-6 20,-3 15,27 -10,52 11,22 35,-52 20,-61 26,-68 89,-112 65,-47 66,-48 34,-48 -17,0 -32,-2 -32,-5 0,-3 16,-20 36,-37 44,-39 70,-89 79,-153 l 7,-50 -36,34 -36,35 v -67 c 0,-108 -32,-162 -147,-244 -106,-76 -393,-187 -439,-169 -7,3 -14,0 -16,-6 -3,-7 -12,-9 -24,-4 -19,7 -19,8 0,22 11,8 15,14 8,14 -7,0 -9,7 -5,18 4,9 -20,-11 -53,-45 -49,-51 -69,-64 -118,-78 -115,-33 -236,0 -303,82 -26,31 -38,40 -44,31 -5,-7 -1,-20 8,-30 15,-17 14,-18 -11,-18 -15,0 -25,3 -23,8 3,4 -15,8 -39,9 -104,5 -353,111 -442,189 -46,40 -51,48 -40,63 11,14 11,14 -4,3 -14,-11 -19,-9 -36,15 -29,40 -45,110 -37,160 7,51 -3,55 -38,13 -14,-16 -28,-30 -30,-30 -2,0 -1,21 4,46 11,57 55,139 85,159 30,19 31,35 2,35 -21,0 -21,1 -3,20 10,11 38,33 62,48 36,22 47,38 65,85 11,31 25,57 29,57 5,0 9,-4 9,-9 0,-4 19,-5 43,0 23,4 58,8 77,9 h 36 v -72 c -1,-103 27,-162 88,-189 83,-36 152,2 191,106 14,35 23,45 40,45 32,0 72,35 80,71 9,40 2,46 -24,20 -41,-41 -73,-28 -190,81 -44,41 -67,68 -59,71 7,3 46,6 87,6 72,1 74,0 107,-35 z m -192,-98 c 19,-25 19,-29 5,-54 -28,-50 -79,-36 -79,21 0,32 26,70 44,64 5,-2 19,-16 30,-31 z m 897,0 c 25,-55 -21,-107 -62,-70 -23,21 -25,57 -3,78 23,23 53,20 65,-8 z m 1150,-191 c 93,-26 185,-63 177,-70 -2,-2 -29,5 -59,16 -45,18 -247,69 -271,69 -5,0 -8,-7 -8,-15 0,-10 -10,-15 -30,-15 -34,0 -33,0 -21,33 9,23 12,24 68,15 32,-5 97,-20 144,-33 z m -3061,26 c 0,-5 3,-16 6,-25 5,-12 0,-16 -19,-16 -14,0 -27,6 -30,13 -3,9 -29,7 -114,-10 -131,-27 -220,-59 -226,-82 -3,-11 -5,-9 -6,6 -1,18 12,26 77,51 65,25 138,45 237,66 38,7 75,6 75,-3 z m 29,-133 c 19,-63 83,-320 79,-323 -1,-2 -19,-5 -38,-8 -19,-2 -27,-2 -17,0 11,3 16,11 13,21 -3,9 -21,82 -41,161 -19,79 -36,146 -38,147 -2,2 -54,-5 -117,-17 -127,-23 -206,-50 -204,-71 1,-7 20,-85 43,-172 37,-142 43,-182 26,-164 -3,3 -27,83 -52,178 -43,164 -45,174 -28,186 40,30 261,91 332,93 27,1 33,-4 42,-31 z m 2933,17 c 88,-19 195,-52 226,-71 12,-8 22,-22 22,-32 -1,-15 -2,-15 -13,-1 -16,22 -122,55 -236,73 -52,9 -95,15 -96,13 -6,-8 -79,-305 -79,-319 0,-18 -30,-25 -40,-10 -4,7 29,151 75,325 12,44 25,46 141,22 z m 236,-147 c -3,-7 -16,-55 -29,-105 -13,-51 -28,-93 -32,-93 -10,0 -8,11 25,133 11,42 25,77 30,77 6,0 8,-6 6,-12 z m -62,-225 c -3,-10 -8,-30 -12,-45 -7,-30 -11,-33 -32,-19 -11,7 -11,9 1,14 8,3 18,19 22,36 4,17 11,31 16,31 6,0 8,-8 5,-17 z m -166,-14 c 18,-11 -34,-1 -65,13 -13,5 -9,6 15,2 19,-4 42,-10 50,-15 z m -3065,1 c -11,-5 -27,-9 -35,-9 -9,0 -8,4 5,9 11,5 27,9 35,9 9,0 8,-4 -5,-9 z m -65,-19 c -8,-5 -26,-11 -40,-15 -21,-5 -20,-3 5,9 32,15 60,20 35,6 z m 254,-141 c 15,-52 29,-103 32,-112 9,-30 -25,-21 -37,10 -36,91 -57,200 -42,216 10,10 18,-8 47,-114 z m 2720,101 c 3,-5 -6,-58 -22,-117 -24,-98 -30,-109 -51,-112 -18,-3 -22,0 -18,12 4,9 18,60 33,114 14,53 28,100 31,105 6,10 21,9 27,-2 z M 2296,2658 c -1,-7 -5,-18 -8,-24 -20,-32 299,-165 542,-225 53,-13 159,-10 215,5 166,47 305,95 410,144 66,30 122,57 124,59 3,2 -1,9 -7,15 -7,7 -12,18 -12,25 0,7 49,-21 110,-62 60,-41 136,-88 169,-104 59,-30 59,-30 54,-69 -3,-21 0,-56 6,-77 16,-60 1,-70 -112,-70 -80,1 -100,4 -157,30 -36,17 -85,45 -108,63 -24,18 -46,32 -48,30 -1,-2 3,-35 11,-73 40,-200 40,-329 0,-462 -15,-51 -74,-155 -105,-187 -19,-19 -19,-18 -14,55 l 5,74 -34,-70 c -66,-136 -159,-208 -312,-240 -88,-18 -122,-18 -209,0 -163,34 -273,133 -309,276 l -14,52 -6,-40 c -4,-22 -3,-61 2,-87 10,-53 1,-52 -34,5 -18,27 -25,54 -26,91 -2,52 -2,52 -8,13 l -6,-40 -21,45 c -33,68 -48,155 -47,265 1,88 22,264 40,319 5,17 1,16 -26,-7 -84,-71 -245,-122 -342,-110 -69,9 -80,17 -67,54 6,16 8,54 6,84 l -5,54 54,22 c 30,12 107,57 171,100 64,43 118,78 119,79 1,0 0,-6 -1,-12 z m -465,-104 c 29,-28 49,-83 49,-137 0,-30 -4,-38 -24,-43 -29,-7 -80,20 -94,50 -6,12 -13,37 -17,57 -3,21 -15,49 -26,63 -15,20 -17,27 -7,30 7,3 20,7 28,10 25,8 64,-4 91,-30 z m 2314,17 c 3,-5 1,-12 -4,-15 -5,-4 -19,-37 -32,-74 -12,-37 -28,-75 -37,-84 -17,-21 -72,-24 -90,-6 -26,26 -5,112 37,157 24,26 37,31 74,31 25,0 48,-4 52,-9 z m -2520,-63 c 50,-23 18,-67 -52,-71 -13,-1 -23,-5 -23,-8 0,-3 -17,-15 -39,-27 -38,-22 -117,-100 -108,-108 2,-2 31,12 63,31 100,61 198,80 242,49 20,-13 33,-52 14,-40 -15,9 -104,-15 -194,-53 -51,-21 -109,-42 -128,-45 -33,-6 -37,-4 -62,38 -16,24 -28,56 -28,71 0,98 213,209 315,163 z m 2761,-9 c 71,-27 164,-112 164,-151 0,-14 -11,-41 -24,-61 -15,-22 -27,-58 -31,-94 -10,-80 -24,-102 -25,-37 v 50 l -117,57 c -65,31 -142,62 -170,68 -59,12 -65,21 -28,45 38,25 105,12 208,-40 54,-27 87,-39 87,-31 0,18 -65,73 -116,97 -23,12 -40,26 -37,31 4,6 -1,8 -11,4 -11,-5 -15,-3 -10,5 5,7 0,9 -14,6 -12,-4 -25,-2 -28,4 -3,5 -12,7 -20,4 -20,-8 -18,23 3,46 22,25 97,24 169,-3 z M 1804,2211 c 17,-19 13,-20 -123,-65 -199,-65 -250,-61 -123,10 133,75 212,92 246,55 z m 2469,-42 c 59,-30 107,-58 107,-63 0,-18 -98,2 -200,42 -58,22 -113,43 -124,46 -15,5 -16,9 -5,22 24,29 103,12 222,-47 z m -2774,-15 c -6,-7 -15,-11 -21,-8 -5,3 -4,12 3,20 6,7 15,11 21,8 5,-3 4,-12 -3,-20 z m 696,-91 c -4,-10 -15,-49 -25,-88 -15,-59 -21,-70 -39,-69 -117,4 -107,-1 -140,59 -17,30 -31,59 -31,63 0,5 33,12 73,15 39,4 90,13 112,21 53,19 58,19 50,-1 z m 1627,-17 c 44,0 78,-5 78,-11 0,-5 -15,-35 -33,-64 -33,-55 -33,-55 -99,-66 l -66,-11 -21,86 c -12,47 -21,89 -21,92 0,3 19,-1 43,-9 23,-8 77,-16 119,-17 z M 1930,1913 c 40,-76 158,-252 220,-328 31,-38 101,-111 153,-162 100,-96 115,-135 24,-64 -119,92 -292,296 -386,455 -53,90 -66,120 -56,136 11,18 20,11 45,-37 z m 2034,-6 c -57,-109 -196,-303 -299,-415 -69,-76 -245,-211 -245,-189 0,2 32,30 71,62 127,106 308,332 418,523 35,60 45,71 57,62 11,-10 11,-17 -2,-43 z M 2211,1779 c 32,-17 68,-42 81,-56 l 23,-25 -41,20 c -22,11 -71,29 -108,39 -54,14 -71,23 -82,44 l -13,27 41,-10 c 23,-5 68,-23 99,-39 z m 1548,12 c -16,-22 -32,-30 -68,-35 -25,-3 -71,-18 -101,-31 l -55,-26 30,26 c 51,44 153,92 198,94 16,1 16,-2 -4,-28 z M 1754,1511 c 7,-10 -22,-24 -34,-16 -14,9 -82,-23 -112,-52 -15,-15 -35,-46 -44,-70 -19,-49 -49,-61 -38,-15 21,91 98,162 176,162 26,0 49,-4 52,-9 z m 2473,-11 c 41,-24 82,-86 90,-134 8,-53 -10,-45 -42,19 -21,44 -33,57 -56,62 -16,3 -29,10 -29,15 0,5 -5,6 -10,3 -6,-3 -13,1 -16,9 -3,9 -14,16 -24,16 -10,0 -26,3 -35,6 -13,5 -14,8 -3,15 24,15 92,9 125,-11 z m -2387,-45 c 0,-8 -4,-15 -9,-15 -5,0 -33,-23 -62,-50 -53,-53 -69,-59 -49,-18 33,64 120,124 120,83 z m 2237,-20 c 37,-32 72,-89 61,-100 -3,-3 -27,17 -54,43 -27,27 -58,53 -68,59 -20,11 -14,33 8,33 7,0 31,-16 53,-35 z m -685,-243 c 70,-28 132,-87 164,-155 22,-48 24,-64 24,-202 0,-128 -3,-156 -20,-194 -32,-69 -77,-118 -135,-147 -30,-14 -55,-28 -55,-31 0,-6 143,-204 197,-273 24,-30 43,-58 43,-62 0,-5 -84,-8 -187,-8 l -188,1 -115,159 -115,160 h -47 -48 v 135 135 h 146 c 81,0 154,5 165,10 17,9 19,22 19,100 0,78 -2,91 -19,100 -12,6 -97,10 -208,10 h -188 l -1,-153 c -1,-83 -2,-266 -3,-404 l -1,-253 h -165 -165 v 543 c 0,299 3,547 7,551 4,4 195,6 423,4 404,-3 417,-4 472,-26 z M 4720,1075 V 930 h -335 -335 l -1,-27 c -6,-258 -6,-450 2,-469 l 9,-24 h 330 330 V 265 120 h -368 c -405,0 -431,3 -509,60 -49,36 -99,108 -114,164 -7,26 -11,151 -10,340 1,277 3,302 22,345 38,87 134,161 233,181 22,4 200,8 394,9 l 352,1 z m -2701,-33 c 41,-92 96,-212 121,-267 26,-55 62,-134 80,-175 17,-41 42,-97 55,-125 13,-27 47,-104 75,-170 29,-66 58,-135 66,-152 l 14,-33 h -179 -179 l -34,85 -33,85 h -209 -208 l 7,27 c 3,15 27,76 52,135 l 46,108 h 94 c 51,0 93,3 93,6 0,9 -133,314 -136,311 -1,-1 -38,-83 -82,-182 -69,-155 -123,-282 -225,-522 l -22,-53 h -178 c -98,0 -176,3 -174,7 3,5 58,130 122,278 64,149 126,288 137,310 20,42 193,433 209,473 8,22 10,22 211,22 h 203 z"
       id="path1"
       style="fill:#006680"
       inkscape:label="path1" />
    <path
       d="m 2985,5184 c -40,-20 -60,-24 -101,-20 -57,5 -86,-6 -140,-54 -18,-16 -51,-32 -71,-35 -21,-4 -68,-13 -105,-21 -77,-16 -148,-18 -148,-4 0,5 38,21 85,35 56,17 98,38 126,60 l 41,35 h -34 c -48,0 -155,-25 -270,-61 -83,-27 -105,-38 -127,-67 -14,-19 -33,-42 -41,-53 -11,-13 -38,-21 -100,-29 -80,-9 -90,-13 -169,-67 -205,-141 -406,-382 -491,-590 -48,-120 -48,-117 9,-79 28,19 64,37 80,41 33,7 51,43 51,105 0,32 10,47 78,118 42,45 83,82 90,82 26,0 10,-30 -48,-92 -58,-61 -60,-65 -60,-116 0,-30 -7,-66 -15,-80 -8,-15 -21,-44 -28,-66 -11,-33 -20,-41 -68,-60 -52,-21 -55,-24 -102,-114 -29,-57 -50,-111 -54,-141 l -6,-49 37,-12 c 20,-6 44,-23 52,-36 9,-13 31,-89 49,-168 29,-128 36,-147 64,-173 29,-26 36,-48 97,-293 66,-267 70,-305 40,-339 -12,-14 -12,-25 2,-78 l 17,-63 h 50 c 62,0 126,-29 156,-69 l 23,-31 55,31 c 31,17 70,42 87,55 l 31,23 -81,82 c -45,46 -88,82 -97,80 -9,-1 -26,10 -38,25 -49,62 -65,202 -36,302 9,28 13,63 9,76 -8,34 20,77 98,152 l 63,61 -38,27 c -48,34 -79,101 -76,160 2,34 -5,59 -33,112 -54,102 -71,173 -66,263 9,153 103,270 242,301 38,8 61,7 110,-5 33,-9 65,-20 70,-25 6,-6 36,16 78,56 38,36 80,70 94,76 13,6 26,20 30,32 11,36 55,75 106,92 34,11 48,21 48,34 0,30 48,79 88,89 65,16 254,22 367,12 123,-12 153,-26 171,-82 10,-28 20,-37 60,-52 50,-18 104,-66 104,-91 0,-8 19,-25 43,-39 23,-14 66,-48 94,-77 l 52,-52 48,18 c 153,59 322,-29 373,-193 36,-116 21,-230 -47,-353 -28,-51 -36,-77 -37,-125 -3,-72 -23,-113 -75,-156 l -39,-31 51,-42 c 70,-57 118,-128 116,-175 -1,-20 5,-66 12,-103 10,-53 11,-83 2,-133 -12,-70 -55,-155 -78,-155 -8,0 -36,-24 -64,-52 -27,-29 -67,-64 -89,-78 l -40,-25 80,-52 c 45,-29 86,-53 93,-53 6,0 22,12 36,26 34,37 96,64 150,64 h 46 l 16,58 c 16,57 15,60 -5,101 l -20,41 62,258 c 65,273 79,313 113,331 18,10 28,38 55,154 37,156 50,184 93,200 16,6 29,16 29,23 0,29 -69,144 -117,193 -52,54 -53,55 -78,174 -14,66 -25,123 -25,128 0,4 -19,25 -42,46 -91,83 -96,93 -51,93 18,0 39,-14 69,-45 63,-65 72,-82 85,-165 14,-92 28,-127 65,-165 16,-17 39,-43 51,-60 l 22,-30 -5,70 c -5,54 -12,79 -33,110 -41,59 -50,116 -11,70 27,-33 20,-4 -19,78 -76,159 -278,401 -398,477 -26,17 -50,30 -55,30 -12,0 19,-78 53,-133 16,-27 28,-51 25,-54 -20,-20 -112,71 -154,152 -12,22 -40,69 -64,105 -39,59 -51,69 -128,108 -151,75 -401,145 -559,157 -57,4 -73,1 -116,-21 z m 389,-141 c 60,-28 59,-63 -2,-63 -59,0 -115,45 -85,68 23,16 46,15 87,-5 z m 304,-75 c 7,-7 12,-20 12,-30 0,-23 -58,-26 -66,-3 -14,37 26,61 54,33 z M 2027,4813 c 7,-19 -56,-81 -93,-93 -51,-17 -63,-1 -34,44 12,20 22,36 23,36 1,0 20,7 42,15 43,15 57,15 62,-2 z"
       id="path2"
       style="fill:#006680" />
    <path
       d="m 990,4196 c -11,-42 -10,-48 16,-95 19,-36 30,-48 36,-39 13,22 9,98 -8,123 -9,14 -14,32 -10,40 3,9 0,15 -8,15 -7,0 -19,-20 -26,-44 z"
       id="path3"
       style="fill:#006680" />
    <path
       d="m 2845,3328 c -33,-5 -68,-9 -79,-9 -10,0 -16,-3 -12,-6 3,-3 -1,-15 -9,-27 -37,-52 3,-121 104,-181 28,-16 51,-36 51,-43 0,-26 -59,-70 -111,-82 -28,-7 -69,-9 -92,-6 -51,8 -121,52 -111,69 4,7 4,9 -1,5 -12,-11 -35,11 -35,32 0,10 6,21 13,23 22,10 -11,24 -43,19 -38,-5 -90,-53 -90,-81 0,-21 1,-21 25,-5 25,16 26,16 66,-30 42,-47 108,-88 164,-100 26,-6 34,-17 60,-79 27,-64 35,-74 75,-94 57,-29 156,-31 216,-4 33,15 44,28 66,77 14,33 28,66 31,76 3,9 21,19 39,23 70,15 139,60 187,121 l 22,27 29,-22 c 33,-24 38,-15 14,30 -17,34 -95,75 -121,65 -14,-6 -14,-9 2,-26 18,-20 17,-21 -26,-63 -44,-41 -101,-67 -151,-67 -32,0 -116,29 -125,42 -4,7 -1,8 7,3 9,-5 11,-4 6,4 -4,6 -15,10 -24,9 -12,-2 -16,3 -14,16 2,11 -1,15 -8,11 -6,-4 -9,-1 -8,7 2,7 29,30 61,51 90,61 113,99 105,177 -1,9 -8,17 -17,17 -9,1 -50,9 -91,17 -84,17 -90,17 -175,4 z m 194,-57 c 26,-17 -25,-31 -111,-31 -88,0 -126,12 -98,30 19,12 190,13 209,1 z m -120,-394 c 1,-29 5,-46 11,-42 6,3 10,33 10,66 0,34 4,59 8,57 4,-1 34,-14 66,-28 55,-23 57,-26 52,-54 -13,-64 -39,-100 -79,-109 -46,-11 -142,0 -156,17 -21,25 -51,126 -38,126 7,0 35,11 62,24 58,27 63,23 64,-57 z"
       id="path4"
       style="fill:#006680" />
    <path
       d="m 2073,2003 c -47,-5 -48,-5 -33,-34 13,-23 80,-28 80,-5 0,8 3,21 6,30 3,9 2,15 -2,14 -5,-1 -28,-3 -51,-5 z"
       id="path5"
       style="fill:#006680" />
    <path
       d="m 3726,1986 c 3,-11 10,-25 14,-30 12,-12 67,3 74,21 8,20 10,19 -47,25 -45,5 -47,4 -41,-16 z"
       id="path6"
       style="fill:#006680" />
  </g>
</svg>
